# xmcd CD database file
#
# Track frame offsets:
#	150
#	15872
#	33199
#	47058
#	63013
#	79783
#	92509
#	106238
#	122340
#	139275
#	152391
#	166399
#
# Disc length: 2408 seconds
#
# Revision: 1
# Processed by: cddbd v1.5.2PL0 Copyright (c) Steve Scherf et al.
# Submitted via: CDex 1.51
#
DISCID=7d09660c
DTITLE=Linda Feller - And're Mütter haben auch ein schönes Kind
DYEAR=1997
DGENRE=Country
TTITLE0=Jetzt lieb ich dich erst recht
TTITLE1=Minuten im Fieber
TTITLE2=Ich geb nicht auf
TTITLE3=Wenn du traurig bist
TTITLE4=Das Fieber brennt
TTITLE5=Die Nacht, die kommt, gehört dir nicht
TTITLE6=And're Mütter haben auch ein schönes Kind
TTITLE7=Meine Tränen wirst due nie mehr seh'n
TTITLE8=Soviel Zeit muss sein
TTITLE9=Sternenflieger
TTITLE10=Tiefer als sonst
TTITLE11=Mit 25 Jahren
EXTD=YEAR: 1997
EXTT0=
EXTT1=
EXTT2=
EXTT3=
EXTT4=
EXTT5=
EXTT6=
EXTT7=
EXTT8=
EXTT9=
EXTT10=
EXTT11=
PLAYORDER=
